<svg width="47" height="46" viewBox="0 0 47 46" fill="none" xmlns="http://www.w3.org/2000/svg">
<rect x="0.452515" width="45.6529" height="45.6529" rx="1.82612" fill="#FFE5E6"/>
<path fill-rule="evenodd" clip-rule="evenodd" d="M27.2789 13.6959H19.2789C18.1744 13.6959 17.2789 14.5914 17.2789 15.6959V27.6959C17.2789 28.8005 18.1744 29.6959 19.2789 29.6959H27.2789C28.3835 29.6959 29.2789 28.8005 29.2789 27.6959V15.6959C29.2789 14.5914 28.3835 13.6959 27.2789 13.6959ZM20.2789 17.6959C20.0028 17.6959 19.7789 17.9198 19.7789 18.1959C19.7789 18.4721 20.0028 18.6959 20.2789 18.6959H26.2789C26.5551 18.6959 26.7789 18.4721 26.7789 18.1959C26.7789 17.9198 26.5551 17.6959 26.2789 17.6959H20.2789ZM19.7789 20.1959C19.7789 19.9198 20.0028 19.6959 20.2789 19.6959H26.2789C26.5551 19.6959 26.7789 19.9198 26.7789 20.1959C26.7789 20.4721 26.5551 20.6959 26.2789 20.6959H20.2789C20.0028 20.6959 19.7789 20.4721 19.7789 20.1959ZM20.2789 21.6959C20.0028 21.6959 19.7789 21.9198 19.7789 22.1959C19.7789 22.4721 20.0028 22.6959 20.2789 22.6959H26.2789C26.5551 22.6959 26.7789 22.4721 26.7789 22.1959C26.7789 21.9198 26.5551 21.6959 26.2789 21.6959H20.2789ZM20.2789 23.6959C20.0028 23.6959 19.7789 23.9198 19.7789 24.1959C19.7789 24.4721 20.0028 24.6959 20.2789 24.6959H23.2789C23.5551 24.6959 23.7789 24.4721 23.7789 24.1959C23.7789 23.9198 23.5551 23.6959 23.2789 23.6959H20.2789Z" fill="#B72D33"/>
</svg>
