<svg width="46" height="46" viewBox="0 0 46 46" fill="none" xmlns="http://www.w3.org/2000/svg">
<rect x="0.342773" width="45.6529" height="45.6529" rx="1.82612" fill="#FFE5E6"/>
<path fill-rule="evenodd" clip-rule="evenodd" d="M28.3239 16.6952L28.4627 16.5656C28.9047 16.1531 29.6212 16.1531 30.0632 16.5656C30.5051 16.9781 30.5051 17.6468 30.0632 18.0593L29.9243 18.1889C30.4175 18.7043 30.3991 19.4958 29.869 19.9905L20.2194 28.9968C20.1593 29.0529 20.0841 29.0927 20.0016 29.1119L16.2516 29.9869C16.0919 30.0242 15.9229 29.9805 15.8065 29.8718C15.6901 29.7631 15.6433 29.6054 15.6832 29.4563L16.6207 25.9563C16.6413 25.8794 16.6839 25.8092 16.744 25.7531L25.7827 17.317C25.5997 17.1966 25.3452 17.2128 25.1815 17.3655L22.0944 20.2468C21.9113 20.4177 21.6146 20.4177 21.4315 20.2468C21.2484 20.0759 21.2484 19.7989 21.4315 19.6281L24.5186 16.7468C25.0492 16.2516 25.8983 16.2348 26.4505 16.6966C26.9827 16.2514 27.791 16.251 28.3239 16.6952Z" fill="#B72D33"/>
</svg>
