<svg width="16" height="16" viewBox="0 0 16 16" fill="none" xmlns="http://www.w3.org/2000/svg">
<g id="upload" clip-path="url(#clip0_22_33)">
<g id="v2">
<path fill-rule="evenodd" clip-rule="evenodd" d="M1.31268 10.0309C1.57157 10.0309 1.78143 10.2408 1.78143 10.4997V12.8434C1.78143 13.3612 2.20117 13.7809 2.71893 13.7809H13.9689C14.4867 13.7809 14.9064 13.3612 14.9064 12.8434V10.4997C14.9064 10.2408 15.1163 10.0309 15.3752 10.0309C15.6341 10.0309 15.8439 10.2408 15.8439 10.4997V12.8434C15.8439 13.8789 15.0045 14.7184 13.9689 14.7184H2.71893C1.6834 14.7184 0.843933 13.8789 0.843933 12.8434V10.4997C0.843933 10.2408 1.0538 10.0309 1.31268 10.0309Z" fill="black"/>
<path fill-rule="evenodd" clip-rule="evenodd" d="M8.01248 1.82443C8.19554 1.64137 8.49233 1.64137 8.67539 1.82443L11.4879 4.63693C11.6709 4.81999 11.6709 5.11678 11.4879 5.29984C11.3048 5.4829 11.008 5.4829 10.825 5.29984L8.81268 3.28755V11.5309C8.81268 11.7898 8.60282 11.9996 8.34393 11.9996C8.08505 11.9996 7.87518 11.7898 7.87518 11.5309V3.28755L5.86289 5.29984C5.67983 5.4829 5.38304 5.4829 5.19998 5.29984C5.01692 5.11678 5.01692 4.81999 5.19998 4.63693L8.01248 1.82443Z" fill="black"/>
</g>
</g>
<defs>
<clipPath id="clip0_22_33">
<rect width="15" height="15" fill="white" transform="translate(0.843933 0.749634)"/>
</clipPath>
</defs>
</svg>
